# xmcd
#
# Track frame offsets:
#   150
#   15542
#   28095
#   43707
#   58665
#   73082
#   91849
#   105017
#   119295
#   130806
#   147074
#   159933
#   174102
#   189295
#   202716
#   216888
#   233890
#   247259
#   264563
#
# Disc length: 3739 seconds
#
# Revision: 0
# Processed by: cddbd v1.5.2PL0 Copyright (c) Steve Scherf et al.
# Submitted via: Media_Universe 3.0
#
DISCID=f70e9913
DTITLE=Miss Montreal - Miss Montreal - The Singles Collection
DYEAR=2015
DGENRE=Pop
TTITLE0=Miss Montreal - Just A Flirt
TTITLE1=Miss Montreal - This Is My Life
TTITLE2=Miss Montreal - Seven Friends
TTITLE3=Miss Montreal - Addicted To Crying
TTITLE4=Miss Montreal - Swing The Night Away
TTITLE5=Miss Montreal - Say what You See
TTITLE6=Miss Montreal - Being Alone At Christmas
TTITLE7=Miss Montreal - Wish I Could
TTITLE8=Miss Montreal - I Know I Will Be Fine
TTITLE9=Miss Montreal - I Am Hunter
TTITLE10=Miss Montreal - Hoe (met Nielson)
TTITLE11=Miss Montreal - Better When It Hurts
TTITLE12=Miss Montreal - Giving Up On You
TTITLE13=Miss Montreal - Wonderful Days (Live @ Q-Music)
TTITLE14=Miss Montreal - Heavy Heart
TTITLE15=Miss Montreal - Say Heaven Say Hell
TTITLE16=Miss Montreal - TuTuTu
TTITLE17=Miss Montreal - Good To Go
TTITLE18=Miss Montreal - Ik Zoek Alleen Mezelf (met Paskal Jakobsen)
EXTD=
EXTT0=
EXTT1=
EXTT2=
EXTT3=
EXTT4=
EXTT5=
EXTT6=
EXTT7=
EXTT8=
EXTT9=
EXTT10=
EXTT11=
EXTT12=
EXTT13=
EXTT14=
EXTT15=
EXTT16=
EXTT17=
EXTT18=
PLAYORDER=
